<?xml version="1.0" encoding="UTF-8"?>
<!DOCTYPE svg PUBLIC "-//W3C//DTD SVG 1.1//EN" "http://www.w3.org/Graphics/SVG/1.1/DTD/svg11.dtd">
<!-- Creator: CorelDRAW 2021.5 -->
<svg xmlns="http://www.w3.org/2000/svg" xml:space="preserve" width="210mm" height="297mm" version="1.1" style="shape-rendering:geometricPrecision; text-rendering:geometricPrecision; image-rendering:optimizeQuality; fill-rule:evenodd; clip-rule:evenodd"
viewBox="0 0 21000 29700"
 xmlns:xlink="http://www.w3.org/1999/xlink"
 xmlns:xodm="http://www.corel.com/coreldraw/odm/2003">
 <defs>
  <style type="text/css">
   <![CDATA[
    .fil1 {fill:black}
    .fil2 {fill:#717171}
    .fil0 {fill:white}
   ]]>
  </style>
 </defs>
 <g id="Layer_x0020_1">
  <metadata id="CorelCorpID_0Corel-Layer"/>
  <rect class="fil0" x="645.85" y="4311.3" width="16611.5" height="6644.6"/>
  <g id="_1681364379552">
   <path class="fil1" d="M16948.11 9879.15c-57.16,17.23 -306.78,313.44 -398.93,383.8 -94.27,-71.97 -332.79,-355.24 -398.93,-387.85 -41.81,43.5 -86.15,162.7 -87.09,246.45 -2.24,200.75 64.1,334.11 222.22,437.6 64.96,42.53 133.83,66.35 202.42,74.42l107.63 0c279.92,-32.67 516.5,-314.82 405.97,-643.02 -13.87,-41.2 -44.67,-79.24 -53.29,-111.4z"/>
   <path class="fil1" d="M16549.18 9410.76c127.12,0 197.85,-11.4 291.44,-90.15 93.64,-78.79 107.49,-173.38 107.49,-291.44 0,-166.03 -166.72,-312.2 -372.92,-312.2 -333.4,0 -475.69,375.3 -266.93,587.81 50.19,51.08 143.27,105.98 240.92,105.98zm8.82 -101.59c89.89,0 139.9,-8.06 206.08,-63.75 66.22,-55.71 76.02,-122.6 76.02,-206.09 0,-117.41 -117.9,-220.77 -263.71,-220.77 -235.77,0 -336.39,265.4 -188.76,415.67 35.49,36.12 101.31,74.94 170.37,74.94z"/>
   <path class="fil2" d="M16150.25 9875.1c66.14,32.61 304.66,315.88 398.93,387.85 92.15,-70.36 341.77,-366.57 398.93,-383.8l175.47 -180.19 -121.34 -125.52 -184.14 175.54 -268.92 273.17 -271.75 -273.17 -177.14 -175.53 -125.59 121.4 175.55 180.25z"/>
   <path class="fil1" d="M16280.33 8595.55l615.75 0c39.92,0 43.36,-40.78 43.36,-69.38 0,-67.08 -135.81,-39.23 -200.13,-42.7 -45.57,-2.46 -48.66,-18.41 -75.42,-45.99 -20.02,-20.62 -38.86,-44.79 -54,-67.41 31.37,-8.38 210.8,-158.44 252.7,-189.6 34.6,-25.73 76.85,-48.72 76.85,-87.92 0,-143.65 -174.63,17 -231.46,63.4l-176.15 136.07c-24.54,-16.44 -42.98,-37.44 -60.7,-60.71 -20.15,-26.44 -38.25,-42.6 -62.88,-67.21 -15.93,-15.92 -118.41,-123.58 -127.92,-123.58 -29.22,0 -60.7,15.32 -60.7,43.36 0,50.03 119.11,148.57 171.45,201.46l184.11 197.47 -302.95 0.58c-47.05,8.14 -71.74,56.59 -35.52,95.06 12.07,12.82 18.82,17.1 43.61,17.1z"/>
   <path class="fil1" d="M16818.1 9748.98c-32.41,-8.61 -72.89,-39.96 -117.91,-55.61 -49.17,-17.08 -87.31,-22.66 -150.95,-22.61 -118.22,0.09 -200.4,28.28 -271.81,78.22l271.75 273.17 268.92 -273.17z"/>
  </g>
 </g>
</svg>
