<svg width="675" height="132" viewBox="0 0 675 132" fill="none" xmlns="http://www.w3.org/2000/svg">
<path d="M111 65.4583C111 96.1099 86.1515 120.958 55.4998 120.958C24.8481 120.958 0 96.1099 0 65.4583C0 34.8066 24.8481 9.95848 55.4998 9.95848C86.1515 9.95848 111 34.8066 111 65.4583Z" fill="black"/>
<rect x="56.5499" y="52.448" width="92.5437" height="19.8844" transform="rotate(45 56.5499 52.448)" fill="#727272"/>
<rect x="42.4896" y="65.4383" width="92.5437" height="19.8844" transform="rotate(-45 42.4896 65.4383)" fill="#727272"/>
<path d="M222.511 67.5966C222.511 72.0828 221.764 76.27 220.268 80.158C218.773 84.046 216.65 87.4854 213.898 90.4762C211.206 93.4072 207.976 95.7101 204.208 97.385C200.499 99.0598 196.432 99.8972 192.005 99.8972C187.579 99.8972 183.511 99.0598 179.803 97.385C176.094 95.7101 172.864 93.4072 170.113 90.4762C167.421 87.4854 165.327 84.046 163.832 80.158C162.337 76.27 161.589 72.0828 161.589 67.5966C161.589 63.1104 162.337 58.9233 163.832 55.0353C165.327 51.1473 167.421 47.7378 170.113 44.8068C172.864 41.816 176.094 39.4832 179.803 37.8083C183.511 36.1335 187.579 35.296 192.005 35.296C196.432 35.296 200.499 36.1335 204.208 37.8083C207.976 39.4832 211.206 41.816 213.898 44.8068C216.65 47.7378 218.773 51.1473 220.268 55.0353C221.764 58.9233 222.511 63.1104 222.511 67.5966ZM210.847 67.5966C210.847 63.589 210.04 59.9701 208.425 56.7401C206.81 53.4502 204.597 50.8482 201.785 48.9341C198.974 47.02 195.714 46.0629 192.005 46.0629C188.297 46.0629 185.037 47.02 182.225 48.9341C179.414 50.8482 177.201 53.4203 175.586 56.6503C174.031 59.8804 173.253 63.5292 173.253 67.5966C173.253 71.6043 174.031 75.2531 175.586 78.543C177.201 81.773 179.414 84.3451 182.225 86.2592C185.037 88.1733 188.297 89.1304 192.005 89.1304C195.714 89.1304 198.974 88.1733 201.785 86.2592C204.597 84.3451 206.81 81.773 208.425 78.543C210.04 75.2531 210.847 71.6043 210.847 67.5966ZM257.126 50.1005C261.911 50.1005 265.44 51.2669 267.713 53.5997C269.986 55.8727 271.482 58.8336 272.2 62.4824L270.674 61.6749L271.392 60.2393C272.11 58.8635 273.216 57.398 274.712 55.8428C276.207 54.2278 278.002 52.8819 280.095 51.8052C282.249 50.6687 284.641 50.1005 287.273 50.1005C291.58 50.1005 294.84 51.0276 297.053 52.8819C299.326 54.7362 300.881 57.2186 301.719 60.329C302.556 63.3796 302.975 66.7891 302.975 70.5575V93.5268C302.975 95.0821 302.466 96.398 301.45 97.4747C300.433 98.4916 299.147 99 297.591 99C296.036 99 294.75 98.4916 293.733 97.4747C292.716 96.398 292.208 95.0821 292.208 93.5268V70.5575C292.208 68.5836 291.969 66.819 291.49 65.2638C291.012 63.6488 290.144 62.3627 288.888 61.4057C287.632 60.4486 285.838 59.9701 283.505 59.9701C281.232 59.9701 279.288 60.4486 277.673 61.4057C276.058 62.3627 274.831 63.6488 273.994 65.2638C273.216 66.819 272.828 68.5836 272.828 70.5575V93.5268C272.828 95.0821 272.319 96.398 271.302 97.4747C270.285 98.4916 268.999 99 267.444 99C265.889 99 264.603 98.4916 263.586 97.4747C262.569 96.398 262.061 95.0821 262.061 93.5268V70.5575C262.061 68.5836 261.822 66.819 261.343 65.2638C260.864 63.6488 259.997 62.3627 258.741 61.4057C257.485 60.4486 255.69 59.9701 253.358 59.9701C251.085 59.9701 249.141 60.4486 247.526 61.4057C245.91 62.3627 244.684 63.6488 243.847 65.2638C243.069 66.819 242.68 68.5836 242.68 70.5575V93.5268C242.68 95.0821 242.172 96.398 241.155 97.4747C240.138 98.4916 238.852 99 237.297 99C235.742 99 234.456 98.4916 233.439 97.4747C232.422 96.398 231.914 95.0821 231.914 93.5268V56.4709C231.914 54.9157 232.422 53.6296 233.439 52.6128C234.456 51.5361 235.742 50.9977 237.297 50.9977C238.852 50.9977 240.138 51.5361 241.155 52.6128C242.172 53.6296 242.68 54.9157 242.68 56.4709V60.329L241.335 60.0598C241.873 59.043 242.621 57.9663 243.578 56.8298C244.535 55.6335 245.701 54.5269 247.077 53.51C248.453 52.4931 249.978 51.6856 251.653 51.0874C253.328 50.4295 255.152 50.1005 257.126 50.1005ZM353.927 50.1005C355.482 50.1005 356.768 50.6089 357.785 51.6258C358.802 52.6427 359.31 53.9586 359.31 55.5736V93.5268C359.31 95.0821 358.802 96.398 357.785 97.4747C356.768 98.4916 355.482 99 353.927 99C352.372 99 351.086 98.4916 350.069 97.4747C349.052 96.398 348.543 95.0821 348.543 93.5268V89.1304L350.517 89.9379C350.517 90.7155 350.099 91.6725 349.261 92.8091C348.424 93.8857 347.287 94.9624 345.852 96.0391C344.416 97.1158 342.711 98.0429 340.737 98.8206C338.823 99.5383 336.73 99.8972 334.457 99.8972C330.329 99.8972 326.591 98.8505 323.241 96.7569C319.892 94.6035 317.23 91.6725 315.256 87.964C313.342 84.1956 312.385 79.8888 312.385 75.0437C312.385 70.1388 313.342 65.8321 315.256 62.1235C317.23 58.3551 319.862 55.4241 323.152 53.3305C326.441 51.1772 330.09 50.1005 334.098 50.1005C336.67 50.1005 339.033 50.4893 341.186 51.2669C343.339 52.0445 345.194 53.0315 346.749 54.2278C348.364 55.4241 349.59 56.6503 350.428 57.9065C351.325 59.1028 351.773 60.1197 351.773 60.9571L348.543 62.1235V55.5736C348.543 54.0184 349.052 52.7324 350.069 51.7155C351.086 50.6388 352.372 50.1005 353.927 50.1005ZM335.803 90.0276C338.434 90.0276 340.737 89.3696 342.711 88.0537C344.685 86.7377 346.211 84.9433 347.287 82.6703C348.424 80.3972 348.992 77.8551 348.992 75.0437C348.992 72.1726 348.424 69.6005 347.287 67.3275C346.211 65.0545 344.685 63.26 342.711 61.944C340.737 60.6281 338.434 59.9701 335.803 59.9701C333.231 59.9701 330.957 60.6281 328.984 61.944C327.01 63.26 325.454 65.0545 324.318 67.3275C323.241 69.6005 322.703 72.1726 322.703 75.0437C322.703 77.8551 323.241 80.3972 324.318 82.6703C325.454 84.9433 327.01 86.7377 328.984 88.0537C330.957 89.3696 333.231 90.0276 335.803 90.0276ZM396.18 50.1005C400.487 50.1005 403.747 51.0276 405.96 52.8819C408.233 54.7362 409.789 57.2186 410.626 60.329C411.463 63.3796 411.882 66.7891 411.882 70.5575V93.5268C411.882 95.0821 411.374 96.398 410.357 97.4747C409.34 98.4916 408.054 99 406.499 99C404.943 99 403.657 98.4916 402.641 97.4747C401.624 96.398 401.115 95.0821 401.115 93.5268V70.5575C401.115 68.5836 400.876 66.819 400.397 65.2638C399.919 63.6488 399.052 62.3627 397.795 61.4057C396.539 60.4486 394.745 59.9701 392.412 59.9701C390.139 59.9701 388.195 60.4486 386.58 61.4057C384.965 62.3627 383.739 63.6488 382.901 65.2638C382.124 66.819 381.735 68.5836 381.735 70.5575V93.5268C381.735 95.0821 381.226 96.398 380.21 97.4747C379.193 98.4916 377.907 99 376.351 99C374.796 99 373.51 98.4916 372.493 97.4747C371.476 96.398 370.968 95.0821 370.968 93.5268V38.0775C370.968 36.5223 371.476 35.2362 372.493 34.2194C373.51 33.1427 374.796 32.6043 376.351 32.6043C377.907 32.6043 379.193 33.1427 380.21 34.2194C381.226 35.2362 381.735 36.5223 381.735 38.0775V60.329L380.389 60.0598C380.927 59.043 381.675 57.9663 382.632 56.8298C383.589 55.6335 384.756 54.5269 386.131 53.51C387.507 52.4931 389.032 51.6856 390.707 51.0874C392.382 50.4295 394.207 50.1005 396.18 50.1005ZM492.832 99C491.157 99 489.811 98.3121 488.794 96.9364L468.068 69.6603L476.233 61.316L497.677 89.6687C498.515 90.8052 498.933 92.0314 498.933 93.3474C498.933 95.0222 498.305 96.398 497.049 97.4747C495.793 98.4916 494.387 99 492.832 99ZM493.909 35.7447C495.344 35.7447 496.511 36.3428 497.408 37.5391C498.365 38.6756 498.844 39.8421 498.844 41.0384C498.844 42.2945 498.305 43.4609 497.228 44.5376L459.634 80.5169L459.186 67.6864L489.512 37.8083C490.888 36.4325 492.353 35.7447 493.909 35.7447ZM455.148 99C453.473 99 452.127 98.4916 451.11 97.4747C450.094 96.398 449.585 95.0821 449.585 93.5268V41.6664C449.585 40.1112 450.123 38.8252 451.2 37.8083C452.277 36.7316 453.653 36.1933 455.327 36.1933C457.002 36.1933 458.318 36.7316 459.275 37.8083C460.292 38.8252 460.801 40.1112 460.801 41.6664V93.5268C460.801 95.0821 460.292 96.398 459.275 97.4747C458.258 98.4916 456.883 99 455.148 99ZM542.05 50.9977C543.606 50.9977 544.892 51.5361 545.909 52.6128C546.925 53.6296 547.434 54.9157 547.434 56.4709V79.2607C547.434 85.6012 545.669 90.6258 542.14 94.3344C538.611 98.0429 533.527 99.8972 526.887 99.8972C520.248 99.8972 515.163 98.0429 511.634 94.3344C508.165 90.6258 506.43 85.6012 506.43 79.2607V56.4709C506.43 54.9157 506.939 53.6296 507.955 52.6128C508.972 51.5361 510.258 50.9977 511.814 50.9977C513.369 50.9977 514.655 51.5361 515.672 52.6128C516.689 53.6296 517.197 54.9157 517.197 56.4709V79.2607C517.197 82.9095 518.004 85.6311 519.619 87.4256C521.235 89.1603 523.657 90.0276 526.887 90.0276C530.177 90.0276 532.629 89.1603 534.244 87.4256C535.86 85.6311 536.667 82.9095 536.667 79.2607V56.4709C536.667 54.9157 537.175 53.6296 538.192 52.6128C539.209 51.5361 540.495 50.9977 542.05 50.9977ZM584.751 50.1005C589.178 50.1005 592.527 51.0276 594.8 52.8819C597.133 54.7362 598.718 57.2186 599.556 60.329C600.453 63.3796 600.902 66.7891 600.902 70.5575V93.5268C600.902 95.0821 600.393 96.398 599.376 97.4747C598.359 98.4916 597.073 99 595.518 99C593.963 99 592.677 98.4916 591.66 97.4747C590.643 96.398 590.135 95.0821 590.135 93.5268V70.5575C590.135 68.5836 589.866 66.819 589.327 65.2638C588.849 63.6488 587.951 62.3627 586.635 61.4057C585.32 60.4486 583.435 59.9701 580.983 59.9701C578.59 59.9701 576.557 60.4486 574.882 61.4057C573.267 62.3627 572.011 63.6488 571.113 65.2638C570.276 66.819 569.857 68.5836 569.857 70.5575V93.5268C569.857 95.0821 569.349 96.398 568.332 97.4747C567.315 98.4916 566.029 99 564.474 99C562.918 99 561.632 98.4916 560.616 97.4747C559.599 96.398 559.09 95.0821 559.09 93.5268V56.4709C559.09 54.9157 559.599 53.6296 560.616 52.6128C561.632 51.5361 562.918 50.9977 564.474 50.9977C566.029 50.9977 567.315 51.5361 568.332 52.6128C569.349 53.6296 569.857 54.9157 569.857 56.4709V60.329L568.511 60.0598C569.05 59.043 569.827 57.9663 570.844 56.8298C571.861 55.6335 573.057 54.5269 574.433 53.51C575.809 52.4931 577.364 51.6856 579.099 51.0874C580.833 50.4295 582.718 50.1005 584.751 50.1005ZM633.893 50.1005C637.303 50.1005 640.264 50.4594 642.776 51.1772C645.348 51.895 647.322 52.9118 648.698 54.2278C650.133 55.4839 650.851 57.0092 650.851 58.8037C650.851 60 650.492 61.1365 649.774 62.2132C649.057 63.2301 648.01 63.7385 646.634 63.7385C645.677 63.7385 644.87 63.6189 644.212 63.3796C643.613 63.0805 643.075 62.7216 642.597 62.3029C642.118 61.8842 641.55 61.4954 640.892 61.1365C640.294 60.7776 639.366 60.5085 638.11 60.329C636.914 60.0897 636.017 59.9701 635.419 59.9701C632.368 59.9701 629.766 60.6281 627.613 61.944C625.519 63.26 623.904 65.0545 622.768 67.3275C621.631 69.5407 621.063 72.1127 621.063 75.0437C621.063 77.9149 621.631 80.487 622.768 82.76C623.964 84.9732 625.579 86.7377 627.613 88.0537C629.706 89.3696 632.099 90.0276 634.791 90.0276C636.286 90.0276 637.572 89.9379 638.649 89.7584C639.725 89.579 640.623 89.3098 641.34 88.9509C642.178 88.4724 642.926 87.964 643.584 87.4256C644.241 86.8873 645.228 86.6181 646.544 86.6181C648.1 86.6181 649.296 87.1265 650.133 88.1434C650.971 89.1005 651.389 90.2968 651.389 91.7324C651.389 93.2278 650.552 94.6035 648.877 95.8597C647.202 97.056 644.989 98.0429 642.238 98.8206C639.546 99.5383 636.615 99.8972 633.445 99.8972C628.719 99.8972 624.622 98.8206 621.153 96.6672C617.683 94.454 614.992 91.4632 613.077 87.6948C611.223 83.9264 610.296 79.7094 610.296 75.0437C610.296 70.1388 611.283 65.8321 613.257 62.1235C615.291 58.3551 618.072 55.4241 621.601 53.3305C625.19 51.1772 629.288 50.1005 633.893 50.1005ZM669.292 93.5268C669.292 95.0821 668.784 96.398 667.767 97.4747C666.75 98.4916 665.464 99 663.909 99C662.354 99 661.068 98.4916 660.051 97.4747C659.034 96.398 658.525 95.0821 658.525 93.5268V56.4709C658.525 54.9157 659.034 53.6296 660.051 52.6128C661.068 51.5361 662.354 50.9977 663.909 50.9977C665.464 50.9977 666.75 51.5361 667.767 52.6128C668.784 53.6296 669.292 54.9157 669.292 56.4709V93.5268ZM663.819 45.1657C661.785 45.1657 660.35 44.8367 659.512 44.1787C658.675 43.5207 658.256 42.3543 658.256 40.6795V38.9747C658.256 37.2401 658.705 36.0737 659.602 35.4755C660.559 34.8175 661.995 34.4885 663.909 34.4885C666.002 34.4885 667.468 34.8175 668.305 35.4755C669.143 36.1335 669.561 37.2999 669.561 38.9747V40.6795C669.561 42.4141 669.113 43.6105 668.216 44.2684C667.318 44.8666 665.853 45.1657 663.819 45.1657Z" fill="black"/>
</svg>
